<svg xmlns="http://www.w3.org/2000/svg" viewBox="0 0 160 320" fill="none" stroke="currentColor" stroke-width="2" stroke-linecap="round" stroke-linejoin="round">
  
  
  <path d="M58 6 C58 6, 60 0, 80 0 C100 0, 102 6, 102 6 L102 22 L58 22 Z"></path>
  
  <rect x="46" y="22" width="68" height="34" rx="3"></rect>
  <line x1="46" y1="34" x2="114" y2="34"></line>
  <line x1="46" y1="46" x2="114" y2="46"></line>
  
  <path d="M62 56 L62 76 L98 76 L98 56"></path>
  
  <path d="M30 76 L30 296 C30 308, 38 316, 50 316 L110 316 C122 316, 130 308, 130 296 L130 76 Z"></path>
  
  <path d="M38 200 C50 196, 62 204, 80 200 C98 196, 110 204, 122 200" stroke-dasharray="3 4"></path>
  
  <rect x="42" y="130" width="76" height="92" rx="2"></rect>
  
  <line x1="52" y1="148" x2="92" y2="148"></line>
  <line x1="52" y1="158" x2="108" y2="158"></line>
  <line x1="52" y1="184" x2="108" y2="184" stroke-width="3"></line>
  <line x1="52" y1="200" x2="92" y2="200"></line>
  <line x1="52" y1="210" x2="100" y2="210"></line>
</svg>